<svg width="24" height="24" viewBox="0 0 24 24" fill="none" xmlns="http://www.w3.org/2000/svg">
<path d="M20.6266 2.84838C19.4955 1.71721 17.6856 1.71721 16.5544 2.84838L12.5576 6.84518L11.5773 5.86484C11.2756 5.56319 10.8231 5.56319 10.5215 5.86484C10.2198 6.16648 10.2198 6.61895 10.5215 6.9206L11.5018 7.90094L3.50823 15.8946C3.05576 16.347 2.75411 16.9503 2.6787 17.629C2.22623 18.0061 2 18.6094 2 19.2127C2 20.4947 2.98035 21.475 4.26234 21.475C4.86563 21.475 5.46893 21.2488 5.92139 20.7963C6.52468 20.7209 7.12798 20.4192 7.58044 19.9668L15.5741 11.9732L16.5544 12.9535C16.7052 13.1043 16.9315 13.1797 17.0823 13.1797C17.2331 13.1797 17.4593 13.1043 17.6102 12.9535C17.9118 12.6519 17.9118 12.1994 17.6102 11.8977L16.6298 10.9174L20.6266 6.9206C21.7578 5.78942 21.7578 3.97955 20.6266 2.84838ZM6.52469 18.911C6.22304 19.2127 5.92139 19.3635 5.54434 19.2881C5.24269 19.2881 5.01646 19.4389 4.86563 19.6651C4.79022 19.8159 4.48858 19.9668 4.26234 19.9668C3.80987 19.9668 3.50823 19.6651 3.50823 19.2127C3.50823 18.9864 3.65905 18.6848 3.88529 18.6094C4.11152 18.4585 4.26234 18.2323 4.26234 17.9307C4.26234 17.5536 4.41317 17.1765 4.6394 16.9503L12.5576 8.9567L14.5183 10.9174L6.52469 18.911Z" fill="white"/>
</svg>
