<svg width="24" height="24" viewBox="0 0 24 24" fill="none" xmlns="http://www.w3.org/2000/svg">
<g clip-path="url(#clip0)">
<path d="M18.2742 6.4967C16.8895 4.48872 14.9657 2.94958 12.7101 2.0452C12.6733 2.02981 12.6348 2.01813 12.5949 2.01048C12.511 1.99419 12.4264 1.99704 12.3463 2.01653C12.2649 2.03618 12.1907 2.07255 12.1272 2.12145C12.0671 2.16755 12.0154 2.22575 11.9762 2.2943C11.9335 2.36845 11.9068 2.45239 11.9001 2.54102C11.8971 2.5793 11.898 2.61743 11.9024 2.65493C11.9256 2.87669 11.9374 3.10286 11.9374 3.32731C11.9374 5.67607 10.6539 7.81459 8.62177 8.92838C8.41345 8.34072 8.30076 7.72631 8.28552 7.09377C8.28583 7.09228 8.28619 7.0908 8.28646 7.08931C8.31849 6.9372 8.28876 6.77865 8.20384 6.64849L8.18853 6.62502C8.04689 6.40787 7.77935 6.30959 7.53079 6.38349C7.41255 6.41865 7.31197 6.4888 7.23904 6.5806C4.92907 8.15889 3.55579 10.7524 3.55579 13.5557C3.55579 15.8112 4.43415 17.9318 6.02903 19.5267C7.62396 21.1216 9.74447 21.9999 12 21.9999C14.2556 21.9999 16.3761 21.1215 17.971 19.5267C19.5659 17.9318 20.4443 15.8112 20.4443 13.5557V13.4799C20.4441 10.9701 19.6938 8.55537 18.2742 6.4967ZM19.2723 13.5557C19.2723 17.5657 16.01 20.8281 11.9999 20.8281C7.98994 20.8281 4.72755 17.5657 4.72755 13.5557C4.72755 11.4388 5.63708 9.46061 7.20247 8.08885C7.30747 8.74123 7.50329 9.37338 7.78833 9.97799C7.91654 10.2499 8.23013 10.3807 8.51365 10.2806C8.52642 10.2761 8.539 10.2711 8.55138 10.2658C11.2652 9.09108 13.0379 6.45115 13.1071 3.5063C16.8811 5.38341 19.2723 9.20471 19.2723 13.4799V13.5557Z" fill="white"/>
</g>
<defs>
<clipPath id="clip0">
<rect width="20" height="20" fill="white" transform="translate(2 2)"/>
</clipPath>
</defs>
</svg>
