<svg width="24" height="24" viewBox="0 0 24 24" fill="none" xmlns="http://www.w3.org/2000/svg">
<path d="M21.5765 3.29341L20.7082 2.42383C20.4358 2.15023 20.0716 2 19.6835 2C19.2958 2 18.9701 2.15019 18.6974 2.42383L6.20356 14.9815V7.14372C6.20356 6.34303 5.47649 5.61217 4.67742 5.61217H3.44914C2.65047 5.61217 2.00043 6.30276 2.00043 7.10391L2 20.6068C2.00043 20.9945 2.18176 21.3696 2.45711 21.6442C2.73203 21.9216 3.09824 22 3.51227 22H16.9143C17.3 22 17.6907 21.8907 17.965 21.6156C18.2393 21.3406 18.4177 21.0182 18.4177 20.6316V19.4012C18.4177 19.015 18.2395 18.6013 17.965 18.3267C17.6907 18.0518 17.3002 17.8512 16.9143 17.8512H8.99954L21.5764 5.29794C22.1412 4.73199 22.1412 3.85952 21.5765 3.29341Z" fill="white"/>
</svg>
