<svg width="24" height="24" viewBox="0 0 24 24" fill="none" xmlns="http://www.w3.org/2000/svg">
<path d="M21.5741 18.7016L8.99859 6.14865H16.9125C17.7115 6.14865 18.416 5.39961 18.416 4.59913V3.36864C18.416 2.98219 18.2377 2.65963 17.963 2.38437C17.689 2.10994 17.2984 2 16.9125 2H3.45416C3.06728 2 2.70276 2.11098 2.4289 2.38686C2.15256 2.66254 2.00041 3.00625 2 3.39457L2.00041 16.8669C2.00041 17.2531 2.15132 17.6516 2.42579 17.9267C2.70007 18.2013 3.06355 18.3872 3.44898 18.3872H4.6771C5.47591 18.3872 6.20309 17.657 6.20309 16.8565V9.01909L18.6954 21.5758C18.9678 21.8494 19.3129 22 19.7006 22C20.0887 22 20.4431 21.8494 20.7155 21.5758L21.5787 20.7307C22.1436 20.1648 22.1388 19.2677 21.5741 18.7016Z" fill="white"/>
</svg>
