<svg width="24" height="24" viewBox="0 0 24 24" fill="none" xmlns="http://www.w3.org/2000/svg">
<path d="M20.5501 5.65309L20.5464 5.61098H19.3802C18.5786 5.61098 17.8468 6.34371 17.8468 7.14429V14.9824L5.31545 2.42383C5.04218 2.15061 4.69684 2 4.30769 2C3.91833 2 3.56323 2.15061 3.28995 2.42383L2.42401 3.2937C1.85711 3.85984 1.85939 4.73137 2.42651 5.29772L15.0445 17.8509H7.10506C6.30391 17.8509 5.59496 18.6021 5.59496 19.4029V20.6333C5.59496 21.4341 6.30391 22 7.10506 22H20.6068C20.9949 22 21.328 21.89 21.6025 21.6141C21.88 21.3388 22 21.0162 22 20.6285V7.14429C22 6.34392 21.3515 5.65309 20.5501 5.65309Z" fill="white"/>
</svg>
