<svg width="24" height="24" viewBox="0 0 24 24" fill="none" xmlns="http://www.w3.org/2000/svg">
<path d="M21.6027 2.38843C21.3269 2.11137 20.9937 2 20.6053 2H7.10182C6.30012 2 5.59188 2.56969 5.59188 3.37019V4.60019C5.59188 5.4007 6.30012 6.1477 7.10182 6.1477H15.0422L2.42453 18.6986C2.15099 18.972 2.00021 19.3125 2 19.7013C2 20.0902 2.15099 20.4425 2.42453 20.7159L3.2956 21.5792C3.56893 21.8525 3.93406 22 4.32349 22C4.71291 22 5.03837 21.8482 5.31191 21.5749L17.8459 9.01915V16.8544C17.8459 17.6551 18.5772 18.3834 19.3787 18.3834H20.6109C21.4122 18.3834 22 17.6551 22 16.8544V3.37496C21.9998 2.98757 21.8793 2.66301 21.6027 2.38843Z" fill="white"/>
</svg>
