<svg width="24" height="24" viewBox="0 0 24 24" fill="none" xmlns="http://www.w3.org/2000/svg">
<path d="M21.6151 12.9161L20.8272 12.2608C20.5798 12.0548 20.2491 11.9408 19.8971 11.9408C19.5447 11.9408 19.1841 12.0548 18.9367 12.2608L13.8426 16.4712V3.09447C13.8426 2.49122 13.313 2 12.5877 2H11.4728C10.7476 2 10.0841 2.49122 10.0841 3.09447V16.5189L5.0001 12.2608C4.75232 12.0548 4.4406 11.9408 4.0882 11.9408C3.73619 11.9408 3.41469 12.0548 3.16711 12.2608L2.3835 12.9161C1.87074 13.3426 1.87289 14.0364 2.38565 14.4629L11.0674 21.6807C11.3146 21.8862 11.6462 22 12.0012 22H12.0049C12.3571 22 12.688 21.8862 12.9352 21.6807L21.6151 14.4631C22.1283 14.0367 22.1283 13.3426 21.6151 12.9161Z" fill="white"/>
</svg>
