<svg width="24" height="24" viewBox="0 0 24 24" fill="none" xmlns="http://www.w3.org/2000/svg">
<path d="M20.8758 10.1117L20.907 10.12H7.52391L11.7311 5.04357C11.9371 4.79573 12.0501 4.45999 12.0501 4.10761C12.0501 3.75523 11.9371 3.42185 11.7311 3.17342L11.0764 2.38488C10.8706 2.13704 10.5963 2 10.3037 2C10.0111 2 9.73659 2.13606 9.53073 2.3839L2.31887 11.0659C2.1122 11.3147 1.99919 11.6462 2 11.9987C1.99919 12.3533 2.1122 12.6849 2.31887 12.9333L9.53073 21.6161C9.73659 21.8637 10.0109 22 10.3037 22C10.5963 22 10.8706 21.8636 11.0764 21.6161L11.7311 20.8276C11.9371 20.5801 12.0501 20.2497 12.0501 19.8973C12.0501 19.5451 11.9371 19.2321 11.7311 18.9844L7.47643 13.8796H20.8907C21.4935 13.8796 22 13.2542 22 12.5289V11.4136C22 10.6883 21.4785 10.1117 20.8758 10.1117Z" fill="white"/>
</svg>
