<svg width="24" height="24" viewBox="0 0 24 24" fill="none" xmlns="http://www.w3.org/2000/svg">
<path d="M21.6803 11.0659L14.4576 2.38386C14.2514 2.13603 13.9766 2 13.6836 2C13.3903 2 13.1157 2.13623 12.9095 2.38386L12.2537 3.17231C12.0477 3.41975 11.9342 3.75025 11.9342 4.10265C11.9342 4.45485 12.0477 4.7965 12.2537 5.04394L16.4674 10.12H3.08048C2.47691 10.12 2 10.6879 2 11.4137V12.5283C2 13.254 2.47691 13.8793 3.08048 13.8793H16.5152L12.2539 18.9836C12.0479 19.2315 11.9344 19.553 11.9344 19.9054C11.9344 20.2574 12.0479 20.5836 12.2539 20.8312L12.9097 21.6171C13.1158 21.8649 13.3905 22 13.6838 22C13.9768 22 14.2516 21.8632 14.4578 21.6154L21.6805 12.9335C21.8872 12.6849 22.0008 12.353 22 12.0002C22.0006 11.6462 21.8872 11.3142 21.6803 11.0659Z" fill="white"/>
</svg>
