<svg width="24" height="24" viewBox="0 0 24 24" fill="none" xmlns="http://www.w3.org/2000/svg">
<path d="M21.6141 9.5361L12.9331 2.31886C12.6854 2.11301 12.3551 2 11.9958 2C11.6436 2 11.3134 2.11301 11.0658 2.31886L2.38461 9.5361C1.8718 9.9626 1.8718 10.6567 2.38461 11.0829L3.1728 11.7385C3.4204 11.9442 3.75074 12.0574 4.10318 12.0574C4.45542 12.0574 4.7971 11.9442 5.04451 11.7385L10.1202 7.5278V20.9052C10.1202 21.5081 10.6882 22 11.4134 22H12.5282C13.2534 22 13.8789 21.5081 13.8789 20.9052V7.48032L18.9833 11.7385C19.2307 11.9442 19.5523 12.0574 19.9047 12.0574C20.2572 12.0574 20.5826 11.9442 20.8304 11.7385L21.6162 11.0829C22.1293 10.6566 22.1273 9.9626 21.6141 9.5361Z" fill="white"/>
</svg>
