<svg width="258" height="258" viewBox="0 0 258 258" fill="none" xmlns="http://www.w3.org/2000/svg">
<g clip-path="url(#clip0)">
<rect width="242.576" height="240.459" rx="16" fill="#DCE2F0"/>
<rect x="9.40216" y="9.32007" width="223.771" height="221.818" rx="16" fill="#2F323E"/>
<path d="M20.6848 36.5043C20.6848 27.6677 27.8482 20.5043 36.6848 20.5043H55.7861V55.2993H20.6848V36.5043Z" fill="#6DEDFF"/>
<path d="M62.0542 20.5043H97.1556V55.2993H62.0542V20.5043Z" fill="#6DEDFF"/>
<path d="M20.6848 61.5127H55.7861V96.3078H20.6848V61.5127Z" fill="#67ECFF"/>
<path d="M62.0542 61.5127H97.1556V96.3078H62.0542V61.5127Z" fill="#60AFFF"/>
<path d="M20.6848 102.521H55.7861V137.316H20.6848V102.521Z" fill="#5AA4FF"/>
<path d="M20.6848 143.53H55.7861V178.325H20.6848V143.53Z" fill="#824EFF"/>
<path d="M62.0542 184.538H97.1556V219.333H62.0542V184.538Z" fill="#E54CA5"/>
<path d="M103.424 184.538H138.525V219.333H103.424V184.538Z" fill="#FF944C"/>
<path d="M144.793 184.538H179.895V219.333H144.793V184.538Z" fill="#F2C92E"/>
<path d="M186.163 143.53H221.264V178.325H186.163V143.53Z" fill="#CEAD29"/>
<path d="M186.163 102.521H221.264V137.316H186.163V102.521Z" fill="#FE9654"/>
<path d="M144.793 143.53H179.895V178.325H144.793V143.53Z" fill="#FE9654"/>
<path d="M103.424 143.53H138.525V178.325H103.424V143.53Z" fill="#E751B0"/>
<path d="M144.793 102.521H179.895V137.316H144.793V102.521Z" fill="#E751B0"/>
<path d="M62.0542 143.53H97.1556V178.325H62.0542V143.53Z" fill="#C736FF"/>
<path d="M62.0542 102.521H97.1556V137.316H62.0542V102.521Z" fill="#8A58FF"/>
<path d="M103.424 102.521H138.525V137.316H103.424V102.521Z" fill="#CD21FF"/>
<path d="M186.163 184.538H221.264V203.333C221.264 212.17 214.101 219.333 205.264 219.333H186.163V184.538Z" fill="#FFD330"/>
<path d="M20.6848 184.538H55.7861V219.333H36.6848C27.8482 219.333 20.6848 212.17 20.6848 203.333V184.538Z" fill="#824EFF"/>
<path d="M103.424 61.5127H138.525V96.3078H103.424V61.5127Z" fill="#9162FF"/>
<path d="M144.793 61.5127H179.895V96.3078H144.793V61.5127Z" fill="#CF28FF"/>
<path d="M186.163 61.5127H221.264V96.3078H186.163V61.5127Z" fill="#E359BC"/>
<path d="M103.424 20.5043H138.525V55.2993H103.424V20.5043Z" fill="#67B6FF"/>
<path d="M144.793 20.5043H179.895V55.2993H144.793V20.5043Z" fill="#986AFF"/>
<path d="M186.163 20.5043H205.264C214.101 20.5043 221.264 27.6677 221.264 36.5043V55.2993H186.163V20.5043Z" fill="#D12AFF"/>
<path fill-rule="evenodd" clip-rule="evenodd" d="M150.471 255.894C150.853 255.661 151.23 255.419 151.6 255.167L151.073 256.169L150.471 255.894ZM150.821 231.257C155.014 230.667 157.61 228.031 159.664 223.849L214.093 113.016L186.657 100L133.012 210.56C131.472 213.697 131.257 218.107 132.612 221.973C133.695 225.065 132.939 227.93 131.128 230.293C129.046 231.884 128.56 235.521 129.373 237.841C130.998 242.479 135.219 244.482 139.925 242.847C142.278 242.029 144.874 239.393 145.116 237.575C145.873 234.71 147.684 232.347 150.821 231.257Z" fill="url(#paint0_linear)"/>
<path d="M176.834 89.3906L177.28 89.6024L177.498 89.1602L202.098 39.0666C208.94 25.1344 225.661 19.3257 239.722 25.9964C253.777 32.6649 259.548 49.1351 252.708 63.0626L228.108 113.156L227.884 113.61L228.343 113.828L240.743 119.711C244.307 121.402 245.67 125.292 243.936 128.823C243.07 130.587 241.295 131.94 239.991 132.393C238.688 132.845 236.453 132.886 234.673 132.041L222.273 126.158L221.826 125.946L221.609 126.388L172.408 226.575C169.669 232.152 165.054 236.836 159.731 239.454L159.578 239.529L159.503 239.682C156.78 245.226 151.95 249.208 146.392 251.139C134.594 255.238 122.483 249.484 118.414 237.87C116.493 232.389 116.673 226.22 119.609 221.402L119.714 221.229L119.669 221.032C118.2 214.61 119.062 208.15 121.798 202.579L170.999 102.392L171.222 101.938L170.764 101.721L158.364 95.8375C154.8 94.147 153.437 90.2562 155.171 86.7254C156.907 83.19 160.866 81.8148 164.434 83.5076L176.834 89.3906ZM184.118 108.056L183.67 107.843L183.454 108.289L134.962 208.227C134.962 208.228 134.962 208.229 134.961 208.229C133.504 211.197 133.314 215.323 134.577 218.929C135.484 221.517 134.875 223.914 133.349 225.931C132.313 226.751 131.706 228.038 131.443 229.351C131.175 230.69 131.249 232.129 131.65 233.272C132.423 235.478 133.827 237.092 135.633 237.949C137.438 238.805 139.594 238.881 141.826 238.106C142.98 237.705 144.162 236.873 145.08 235.941C145.974 235.033 146.702 233.944 146.845 232.968C147.493 230.54 149.013 228.57 151.631 227.644C155.619 227.066 158.065 224.525 159.953 220.681L209.154 120.494L209.377 120.04L208.919 119.822L184.118 108.056Z" fill="#252447" stroke="white"/>
</g>
<defs>
<linearGradient id="paint0_linear" x1="184.044" y1="187.4" x2="145.355" y2="171.049" gradientUnits="userSpaceOnUse">
<stop stop-color="#4C70A4"/>
<stop offset="1" stop-color="#10F5FF"/>
</linearGradient>
<clipPath id="clip0">
<rect width="258" height="258" fill="white"/>
</clipPath>
</defs>
</svg>
